<?xml version="1.0" encoding="UTF-8" standalone="no"?>
<!DOCTYPE svg PUBLIC "-//W3C//DTD SVG 1.1//EN" "http://www.w3.org/Graphics/SVG/1.1/DTD/svg11.dtd">
<svg width="100%" height="100%" viewBox="0 0 40 40" version="1.1" xmlns="http://www.w3.org/2000/svg" xmlns:xlink="http://www.w3.org/1999/xlink" xml:space="preserve" xmlns:serif="http://www.serif.com/" style="fill-rule:evenodd;clip-rule:evenodd;stroke-linecap:round;stroke-linejoin:round;stroke-miterlimit:1.5;">
    <g transform="matrix(1,0,0,1,0,0.527859)">
        <path d="M2,22L36.125,22" style="fill:none;stroke:rgb(194,81,0);stroke-width:1px;"/>
    </g>
    <g transform="matrix(1,0,0,1,2.77556e-17,4)">
        <path d="M2,22L36.125,22" style="fill:none;stroke:rgb(164,69,0);stroke-width:1px;"/>
    </g>
    <g transform="matrix(1,0,0,1,0,8)">
        <path d="M2,22L36.125,22" style="fill:none;stroke:rgb(125,53,0);stroke-width:1px;"/>
    </g>
    <g transform="matrix(1,0,0,1,-0.993436,3.27757)">
        <path d="M20.288,16.454L20.288,12.528L16.392,12.528L16.392,10.887L20.288,10.887L20.288,6.991L21.949,6.991L21.949,10.887L25.845,10.887L25.845,12.528L21.949,12.528L21.949,16.454L20.288,16.454Z" style="fill:rgb(255,0,0);fill-rule:nonzero;"/>
    </g>
    <g transform="matrix(1,0,0,1,-12.6145,1.23167)">
        <path d="M15.255,18.768L19.654,7.315L21.286,7.315L25.974,18.768L24.247,18.768L22.911,15.3L18.122,15.3L16.865,18.768L15.255,18.768ZM18.56,14.065L22.443,14.065L21.247,10.893C20.883,9.93 20.612,9.138 20.435,8.518C20.289,9.253 20.083,9.982 19.818,10.706L18.56,14.065Z" style="fill:rgb(224,119,71);fill-rule:nonzero;"/>
    </g>
    <g transform="matrix(1,0,0,1,11.0261,1.6848)">
        <path d="M16.45,18.768L16.45,7.315L20.747,7.315C21.622,7.315 22.324,7.431 22.853,7.663C23.381,7.895 23.796,8.251 24.095,8.733C24.394,9.215 24.544,9.719 24.544,10.245C24.544,10.734 24.411,11.195 24.146,11.628C23.88,12.06 23.479,12.409 22.943,12.675C23.635,12.878 24.168,13.224 24.54,13.714C24.913,14.203 25.099,14.781 25.099,15.448C25.099,15.984 24.986,16.483 24.759,16.944C24.532,17.405 24.253,17.761 23.919,18.011C23.586,18.261 23.168,18.449 22.665,18.577C22.163,18.705 21.547,18.768 20.818,18.768L16.45,18.768ZM17.966,12.128L20.443,12.128C21.115,12.128 21.596,12.083 21.888,11.995C22.273,11.88 22.564,11.69 22.759,11.425C22.954,11.159 23.052,10.826 23.052,10.425C23.052,10.044 22.961,9.71 22.779,9.421C22.596,9.132 22.336,8.934 21.997,8.827C21.659,8.72 21.078,8.667 20.255,8.667L17.966,8.667L17.966,12.128ZM17.966,17.417L20.818,17.417C21.307,17.417 21.651,17.399 21.849,17.362C22.198,17.3 22.49,17.195 22.724,17.05C22.958,16.904 23.151,16.692 23.302,16.413C23.453,16.134 23.529,15.813 23.529,15.448C23.529,15.021 23.419,14.65 23.2,14.335C22.982,14.02 22.678,13.798 22.29,13.671C21.902,13.543 21.344,13.479 20.615,13.479L17.966,13.479L17.966,17.417Z" style="fill:rgb(224,119,71);fill-rule:nonzero;"/>
    </g>
</svg>
