<?xml version="1.0" encoding="UTF-8" standalone="no"?>
<!DOCTYPE svg PUBLIC "-//W3C//DTD SVG 1.1//EN" "http://www.w3.org/Graphics/SVG/1.1/DTD/svg11.dtd">
<svg width="100%" height="100%" viewBox="0 0 512 512" version="1.1" xmlns="http://www.w3.org/2000/svg" xmlns:xlink="http://www.w3.org/1999/xlink" xml:space="preserve" xmlns:serif="http://www.serif.com/" style="fill-rule:evenodd;clip-rule:evenodd;stroke-linecap:round;stroke-linejoin:round;stroke-miterlimit:1.5;">
    <g transform="matrix(2.64985,0,0,3.1467,-579.088,-613.444)">
        <ellipse cx="315.145" cy="276.303" rx="75.476" ry="63.559" style="fill:url(#_Radial1);stroke:rgb(125,0,0);stroke-width:2.86px;"/>
    </g>
    <g transform="matrix(2.64985,0,0,3.1467,-579.088,-613.444)">
        <ellipse cx="315.145" cy="276.303" rx="75.476" ry="63.559" style="fill:rgb(255,122,122);stroke:rgb(125,0,0);stroke-width:2.86px;"/>
    </g>
    <g transform="matrix(1,0,0,1,-51.2,72.3862)">
        <path d="M159.788,234.814L159.788,145.336L177.61,145.336L198.789,208.691C200.742,214.591 202.166,219.006 203.062,221.935C204.079,218.68 205.666,213.899 207.822,207.592L229.246,145.336L245.176,145.336L245.176,234.814L233.762,234.814L233.762,159.924L207.761,234.814L197.08,234.814L171.201,158.642L171.201,234.814L159.788,234.814Z" style="fill-rule:nonzero;"/>
        <path d="M307.249,213.94L318.601,215.344C316.811,221.976 313.495,227.123 308.652,230.785C303.81,234.448 297.625,236.279 290.098,236.279C280.617,236.279 273.099,233.359 267.545,227.52C261.991,221.681 259.214,213.492 259.214,202.953C259.214,192.048 262.022,183.585 267.637,177.563C273.252,171.541 280.536,168.53 289.487,168.53C298.154,168.53 305.234,171.48 310.728,177.38C316.221,183.28 318.967,191.581 318.967,202.282C318.967,202.933 318.947,203.91 318.906,205.212L270.566,205.212C270.973,212.333 272.988,217.785 276.609,221.569C280.23,225.353 284.747,227.245 290.159,227.245C294.187,227.245 297.625,226.187 300.474,224.072C303.322,221.956 305.58,218.578 307.249,213.94ZM271.177,196.179L307.371,196.179C306.882,190.726 305.499,186.637 303.22,183.91C299.721,179.679 295.184,177.563 289.609,177.563C284.564,177.563 280.322,179.251 276.884,182.629C273.445,186.006 271.543,190.523 271.177,196.179Z" style="fill-rule:nonzero;"/>
        <path d="M328.001,215.466L338.865,213.757C339.475,218.111 341.174,221.447 343.961,223.766C346.749,226.086 350.645,227.245 355.65,227.245C360.695,227.245 364.439,226.218 366.88,224.163C369.321,222.108 370.542,219.697 370.542,216.93C370.542,214.448 369.464,212.495 367.307,211.071C365.802,210.095 362.058,208.854 356.077,207.348C348.02,205.313 342.435,203.554 339.323,202.068C336.21,200.583 333.85,198.528 332.243,195.904C330.635,193.279 329.832,190.38 329.832,187.206C329.832,184.317 330.493,181.642 331.815,179.18C333.138,176.718 334.938,174.674 337.217,173.046C338.926,171.785 341.255,170.717 344.205,169.842C347.155,168.967 350.319,168.53 353.696,168.53C358.783,168.53 363.248,169.262 367.094,170.727C370.939,172.192 373.777,174.175 375.608,176.678C377.439,179.18 378.7,182.527 379.392,186.718L368.65,188.183C368.162,184.846 366.748,182.242 364.408,180.37C362.068,178.499 358.762,177.563 354.49,177.563C349.444,177.563 345.843,178.397 343.687,180.065C341.53,181.734 340.452,183.687 340.452,185.925C340.452,187.349 340.899,188.631 341.795,189.77C342.69,190.95 344.094,191.926 346.006,192.7C347.105,193.106 350.339,194.042 355.711,195.507C363.482,197.582 368.904,199.281 371.976,200.604C375.049,201.926 377.459,203.849 379.209,206.371C380.959,208.894 381.834,212.027 381.834,215.771C381.834,219.433 380.765,222.881 378.629,226.116C376.493,229.351 373.411,231.854 369.382,233.624C365.354,235.394 360.797,236.279 355.711,236.279C347.288,236.279 340.869,234.529 336.454,231.03C332.039,227.53 329.221,222.342 328.001,215.466Z" style="fill-rule:nonzero;"/>
        <path d="M394.895,234.814L394.895,145.336L405.881,145.336L405.881,177.441C411.008,171.5 417.478,168.53 425.291,168.53C430.092,168.53 434.263,169.476 437.803,171.368C441.343,173.26 443.876,175.874 445.402,179.211C446.928,182.547 447.691,187.389 447.691,193.737L447.691,234.814L436.704,234.814L436.704,193.737C436.704,188.244 435.514,184.246 433.134,181.744C430.753,179.241 427.386,177.99 423.032,177.99C419.777,177.99 416.715,178.834 413.847,180.523C410.978,182.212 408.933,184.5 407.712,187.389C406.492,190.278 405.881,194.266 405.881,199.352L405.881,234.814L394.895,234.814Z" style="fill-rule:nonzero;"/>
    </g>
    <g transform="matrix(0.917476,0,0,1.56338,102.895,-207.2)">
        <path d="M252.028,386.582L252.028,364.646L380.476,364.646L380.476,344.276L433.876,375.614L380.476,406.952L380.476,386.582L252.028,386.582Z" style="fill:rgb(255,0,0);"/>
    </g>
    <defs>
        <radialGradient id="_Radial1" cx="0" cy="0" r="1" gradientUnits="userSpaceOnUse" gradientTransform="matrix(61.2968,50.4962,-59.9643,51.6184,283.33,253.861)"><stop offset="0" style="stop-color:white;stop-opacity:1"/><stop offset="1" style="stop-color:rgb(255,94,94);stop-opacity:1"/></radialGradient>
    </defs>
</svg>
