<?xml version="1.0" encoding="UTF-8" standalone="no"?>
<!DOCTYPE svg PUBLIC "-//W3C//DTD SVG 1.1//EN" "http://www.w3.org/Graphics/SVG/1.1/DTD/svg11.dtd">
<svg width="100%" height="100%" viewBox="0 0 512 512" version="1.1" xmlns="http://www.w3.org/2000/svg" xmlns:xlink="http://www.w3.org/1999/xlink" xml:space="preserve" xmlns:serif="http://www.serif.com/" style="fill-rule:evenodd;clip-rule:evenodd;stroke-linejoin:round;stroke-miterlimit:2;">
    <g transform="matrix(1,0,0,1,-37.3588,61.3733)">
        <path d="M76.39,189.502C79.598,189.418 82.213,188.554 84.234,186.908C86.255,185.262 87.598,183.002 88.265,180.127C88.932,177.252 89.286,172.335 89.328,165.377C89.369,158.418 89.494,153.835 89.703,151.627C90.078,148.127 90.776,145.314 91.796,143.189C92.817,141.064 94.078,139.366 95.578,138.095C97.078,136.825 98.994,135.856 101.328,135.189C102.911,134.773 105.494,134.564 109.078,134.564L112.578,134.564L112.578,144.377L110.64,144.377C106.307,144.377 103.432,145.158 102.015,146.72C100.598,148.283 99.89,151.773 99.89,157.189C99.89,168.106 99.661,175.002 99.203,177.877C98.453,182.335 97.171,185.773 95.359,188.189C93.546,190.606 90.703,192.752 86.828,194.627C91.411,196.543 94.734,199.47 96.796,203.408C98.859,207.345 99.89,213.793 99.89,222.752C99.89,230.877 99.973,235.71 100.14,237.252C100.473,240.085 101.317,242.064 102.671,243.189C104.026,244.314 106.682,244.877 110.64,244.877L112.578,244.877L112.578,254.689L109.078,254.689C104.994,254.689 102.036,254.356 100.203,253.689C97.536,252.731 95.328,251.179 93.578,249.033C91.828,246.887 90.692,244.168 90.171,240.877C89.651,237.585 89.369,232.189 89.328,224.689C89.286,217.189 88.932,212.002 88.265,209.127C87.598,206.252 86.255,203.981 84.234,202.314C82.213,200.648 79.598,199.773 76.39,199.689L76.39,189.502Z" style="fill:rgb(255,133,133);fill-rule:nonzero;"/>
        <path d="M156.89,198.314L168.328,197.314C168.869,201.898 170.13,205.658 172.109,208.595C174.088,211.533 177.161,213.908 181.328,215.72C185.494,217.533 190.182,218.439 195.39,218.439C200.015,218.439 204.098,217.752 207.64,216.377C211.182,215.002 213.817,213.116 215.546,210.72C217.276,208.325 218.14,205.71 218.14,202.877C218.14,200.002 217.307,197.491 215.64,195.345C213.973,193.2 211.223,191.398 207.39,189.939C204.932,188.981 199.494,187.491 191.078,185.47C182.661,183.45 176.765,181.543 173.39,179.752C169.015,177.46 165.755,174.616 163.609,171.22C161.463,167.825 160.39,164.023 160.39,159.814C160.39,155.189 161.703,150.866 164.328,146.845C166.953,142.825 170.786,139.773 175.828,137.689C180.869,135.606 186.473,134.564 192.64,134.564C199.432,134.564 205.421,135.658 210.609,137.845C215.796,140.033 219.786,143.252 222.578,147.502C225.369,151.752 226.869,156.564 227.078,161.939L215.453,162.814C214.828,157.023 212.713,152.648 209.109,149.689C205.505,146.731 200.182,145.252 193.14,145.252C185.807,145.252 180.463,146.595 177.109,149.283C173.755,151.97 172.078,155.21 172.078,159.002C172.078,162.293 173.265,165.002 175.64,167.127C177.973,169.252 184.067,171.429 193.921,173.658C203.776,175.887 210.536,177.835 214.203,179.502C219.536,181.96 223.473,185.075 226.015,188.845C228.557,192.616 229.828,196.96 229.828,201.877C229.828,206.752 228.432,211.345 225.64,215.658C222.848,219.97 218.838,223.325 213.609,225.72C208.38,228.116 202.494,229.314 195.953,229.314C187.661,229.314 180.713,228.106 175.109,225.689C169.505,223.273 165.109,219.637 161.921,214.783C158.734,209.929 157.057,204.439 156.89,198.314Z" style="fill:rgb(255,133,133);fill-rule:nonzero;"/>
        <rect x="248.453" y="136.127" width="12.125" height="91.625" style="fill:rgb(255,133,133);fill-rule:nonzero;"/>
        <path d="M274.64,227.752L274.64,216.502L321.578,157.814C324.911,153.648 328.078,150.023 331.078,146.939L279.953,146.939L279.953,136.127L345.578,136.127L345.578,146.939L294.14,210.502L288.578,216.939L347.078,216.939L347.078,227.752L274.64,227.752Z" style="fill:rgb(255,133,133);fill-rule:nonzero;"/>
        <path d="M360.39,227.752L360.39,136.127L426.64,136.127L426.64,146.939L372.515,146.939L372.515,175.002L423.203,175.002L423.203,185.752L372.515,185.752L372.515,216.939L428.765,216.939L428.765,227.752L360.39,227.752Z" style="fill:rgb(255,133,133);fill-rule:nonzero;"/>
        <path d="M510.328,189.502L510.328,199.689C507.119,199.773 504.505,200.648 502.484,202.314C500.463,203.981 499.119,206.241 498.453,209.095C497.786,211.95 497.432,216.856 497.39,223.814C497.348,230.773 497.223,235.356 497.015,237.564C496.64,241.106 495.942,243.929 494.921,246.033C493.901,248.137 492.64,249.825 491.14,251.095C489.64,252.366 487.723,253.335 485.39,254.002C483.807,254.46 481.223,254.689 477.64,254.689L474.14,254.689L474.14,244.877L476.078,244.877C480.411,244.877 483.286,244.095 484.703,242.533C486.119,240.97 486.828,237.46 486.828,232.002C486.828,221.585 487.015,214.981 487.39,212.189C488.057,207.564 489.39,203.866 491.39,201.095C493.39,198.325 496.223,196.168 499.89,194.627C495.098,192.335 491.723,189.304 489.765,185.533C487.807,181.762 486.828,175.398 486.828,166.439C486.828,158.314 486.723,153.46 486.515,151.877C486.223,149.085 485.401,147.137 484.046,146.033C482.692,144.929 480.036,144.377 476.078,144.377L474.14,144.377L474.14,134.564L477.64,134.564C481.723,134.564 484.682,134.898 486.515,135.564C489.182,136.481 491.39,138.023 493.14,140.189C494.89,142.356 496.026,145.085 496.546,148.377C497.067,151.668 497.348,157.064 497.39,164.564C497.432,172.064 497.786,177.241 498.453,180.095C499.119,182.95 500.463,185.21 502.484,186.877C504.505,188.543 507.119,189.418 510.328,189.502Z" style="fill:rgb(255,133,133);fill-rule:nonzero;"/>
    </g>
</svg>
